<?xml version="1.0" standalone="no"?>
<!DOCTYPE svg PUBLIC "-//W3C//DTD SVG 20010904//EN"
 "http://www.w3.org/TR/2001/REC-SVG-20010904/DTD/svg10.dtd">
<svg version="1.0" xmlns="http://www.w3.org/2000/svg"
 width="1080.000000pt" height="1080.000000pt" viewBox="0 0 1080.000000 1080.000000"
 preserveAspectRatio="xMidYMid meet">
<metadata>
Created by potrace 1.16, written by Peter Selinger 2001-2019
</metadata>
<g transform="translate(0.000000,1080.000000) scale(0.100000,-0.100000)"
fill="#000000" stroke="none">
<path d="M4494 10105 c-77 -46 -143 -181 -131 -271 7 -61 77 -297 127 -429 10
-27 33 -88 50 -135 33 -90 101 -258 130 -325 25 -56 129 -291 153 -345 20 -45
71 -154 162 -345 26 -55 69 -145 95 -200 26 -55 62 -131 80 -170 65 -139 99
-211 135 -295 21 -47 48 -109 61 -138 13 -29 24 -55 24 -57 0 -2 11 -28 24
-57 13 -29 40 -95 60 -146 20 -52 43 -110 52 -130 9 -21 20 -46 24 -57 20 -51
74 -182 125 -303 30 -74 55 -135 55 -137 0 -3 11 -28 24 -57 46 -104 66 -151
66 -159 0 -5 11 -33 25 -64 14 -30 36 -80 50 -110 14 -31 25 -57 25 -59 0 -5
151 -319 233 -486 39 -80 109 -212 154 -295 46 -82 83 -151 83 -153 0 -2 14
-23 30 -47 17 -24 30 -51 30 -60 0 -18 96 -273 136 -362 13 -29 35 -78 49
-108 14 -31 25 -57 25 -59 0 -7 92 -199 205 -431 205 -419 356 -729 375 -770
10 -22 29 -65 43 -95 14 -30 47 -107 72 -170 26 -63 53 -128 60 -145 7 -16 52
-131 101 -255 143 -368 210 -525 302 -710 88 -176 249 -436 277 -446 8 -4 23
-3 33 1 9 5 44 9 76 11 170 8 299 122 341 301 18 76 18 123 0 208 -9 39 -20
91 -25 117 -5 26 -23 98 -39 160 -73 275 -164 491 -423 1013 -55 110 -119 243
-143 295 -24 52 -55 122 -70 155 -29 62 -86 201 -132 315 -14 36 -31 79 -38
95 -7 17 -56 140 -109 274 -106 265 -113 283 -192 448 -30 62 -54 115 -54 119
0 10 -98 203 -116 228 -11 16 -9 26 13 70 14 28 40 71 58 96 41 56 55 106 55
195 0 137 -49 356 -92 418 -11 15 -38 60 -60 100 -33 60 -41 86 -49 160 -8 79
-23 127 -40 127 -4 0 -27 19 -52 43 -53 50 -67 95 -42 134 20 30 13 51 -33
104 -16 19 -40 54 -54 79 -40 74 -67 205 -48 241 12 21 13 17 -49 133 -43 80
-71 190 -71 278 0 40 -4 78 -8 84 -9 15 -79 54 -96 54 -18 0 -50 74 -43 100 4
15 -23 64 -99 178 -105 157 -105 157 -89 185 30 51 15 67 -126 124 -19 8 -32
27 -49 72 -21 58 -23 98 -5 142 4 10 -4 28 -20 47 -15 18 -23 36 -20 42 13 21
-24 59 -62 66 -75 13 -126 74 -162 194 -7 25 -19 59 -27 75 -7 17 -15 37 -17
46 -3 8 -43 44 -88 78 -75 56 -88 71 -115 131 -17 37 -36 70 -42 74 -7 4 -19
22 -28 41 -19 41 -71 94 -99 101 -11 3 -35 32 -54 64 -51 89 -85 125 -144 153
-70 33 -97 72 -106 148 -5 42 -14 65 -29 79 -12 12 -22 24 -22 28 0 17 -119
144 -186 200 -196 162 -390 223 -500 157z m249 -433 c26 -30 47 -65 47 -77 0
-52 76 -138 135 -153 24 -6 33 -17 43 -49 13 -41 86 -117 225 -237 50 -42 57
-53 57 -85 0 -38 -4 -33 177 -223 41 -43 78 -78 84 -78 5 0 9 -6 9 -13 0 -7
18 -30 41 -52 22 -21 48 -49 56 -62 8 -12 22 -23 29 -23 13 0 18 -27 15 -76
-2 -20 71 -122 107 -152 12 -9 13 -15 4 -24 -15 -15 -15 -63 0 -91 6 -12 28
-40 49 -62 46 -49 132 -160 184 -240 22 -33 48 -68 57 -79 13 -14 15 -23 7
-38 -14 -26 3 -73 37 -105 22 -20 24 -27 13 -34 -12 -7 -9 -19 16 -66 38 -76
82 -140 118 -172 9 -8 17 -20 17 -26 0 -6 31 -41 69 -76 l69 -65 -9 -48 c-12
-63 -3 -115 33 -188 l29 -60 -22 -44 c-23 -48 -20 -73 9 -81 10 -2 23 -13 30
-23 10 -16 9 -18 -3 -14 -23 9 -18 -13 15 -61 17 -24 30 -46 30 -50 0 -3 12
-32 26 -63 14 -31 29 -66 33 -77 22 -55 36 -85 64 -140 17 -33 33 -62 37 -65
4 -3 9 -14 13 -25 3 -11 17 -51 31 -90 14 -38 25 -77 26 -86 0 -9 19 -32 43
-52 23 -19 48 -46 56 -60 12 -23 11 -31 -7 -67 -17 -35 -19 -47 -9 -69 14 -30
29 -42 76 -57 51 -15 58 -34 34 -82 -17 -35 -18 -43 -6 -66 17 -32 19 -106 4
-134 -16 -30 -13 -63 8 -96 13 -19 17 -36 12 -45 -4 -9 -14 -48 -21 -87 -10
-57 -10 -78 0 -109 15 -45 94 -127 115 -118 8 3 15 1 15 -5 0 -5 16 -34 36
-63 34 -51 36 -57 30 -111 -8 -79 0 -107 46 -168 21 -28 54 -80 72 -114 18
-33 38 -70 44 -81 17 -29 82 -220 100 -295 13 -49 16 -115 16 -272 0 -115 4
-208 8 -208 4 0 20 -22 36 -50 16 -27 47 -63 70 -80 24 -17 59 -49 80 -72 20
-23 42 -46 47 -52 46 -50 185 -299 185 -332 0 -8 3 -14 8 -14 4 0 12 -15 18
-32 33 -97 79 -214 86 -219 5 -3 6 -13 2 -23 -4 -10 0 -24 10 -35 14 -15 15
-23 5 -47 -6 -16 -13 -60 -15 -97 l-5 -68 58 -57 c32 -32 75 -66 96 -75 39
-19 46 -41 26 -78 -22 -42 -1 -96 62 -160 62 -63 67 -78 44 -119 -25 -44 -19
-107 15 -150 33 -41 36 -60 18 -93 -6 -12 -12 -51 -12 -87 l-1 -64 -33 -7
c-29 -6 -61 -32 -62 -51 -1 -20 143 -22 193 -2 32 12 8 -22 -31 -43 -54 -30
-94 -36 -117 -19 -11 9 -37 16 -57 16 -20 0 -48 4 -61 9 -37 14 -173 252 -288
506 -55 120 -70 158 -154 380 -79 208 -78 204 -104 268 -6 15 -15 37 -20 50
-67 169 -90 225 -122 295 -22 46 -39 86 -39 88 0 3 -18 42 -40 89 -22 47 -40
88 -40 92 0 6 -163 338 -355 723 -86 171 -101 202 -118 240 -8 19 -30 67 -47
105 -18 39 -41 92 -52 119 -10 27 -28 69 -39 93 -11 24 -37 89 -59 144 l-39
100 25 9 c14 6 34 10 44 10 27 0 132 40 153 58 17 15 23 58 9 78 -4 6 -17 17
-30 23 -20 11 -31 9 -70 -10 -26 -12 -65 -24 -88 -26 -37 -5 -43 -2 -71 32
-17 20 -37 48 -44 63 -8 15 -47 85 -87 156 -41 72 -127 238 -192 371 -101 206
-151 313 -251 543 -11 23 -28 61 -38 85 -10 23 -35 83 -56 132 -20 50 -44 106
-52 125 -8 19 -19 44 -23 55 -4 11 -15 36 -23 55 -9 19 -70 170 -137 335 -143
353 -173 423 -254 599 -25 54 -46 100 -46 102 0 1 -20 45 -44 96 -24 51 -55
118 -69 148 -14 30 -56 120 -95 200 -38 80 -81 170 -95 200 -13 30 -43 93 -65
140 -57 122 -87 189 -149 330 -29 69 -58 134 -62 145 -5 11 -16 36 -25 57 -74
169 -188 509 -184 547 2 17 10 27 23 29 11 2 29 7 40 12 54 24 60 21 128 -58z
m1175 -1186 c20 -19 64 -43 97 -54 52 -18 85 -42 56 -42 -17 0 -25 -91 -12
-139 8 -31 9 -47 1 -55 -7 -7 -10 -5 -10 7 0 9 -4 17 -9 17 -6 0 -21 11 -35
24 -20 17 -26 33 -26 64 0 30 -10 55 -41 101 -22 33 -46 64 -53 68 -16 10 -28
43 -16 43 6 0 27 -15 48 -34z m646 -1062 c9 -3 16 -18 16 -33 0 -80 37 -204
92 -310 28 -53 34 -99 19 -151 l-7 -24 -12 30 c-7 17 -12 46 -11 65 3 42 -42
124 -106 193 -25 26 -45 51 -45 55 0 3 12 17 25 30 18 17 25 34 25 62 0 21 -4
39 -9 39 -12 0 -23 29 -15 41 6 11 8 11 28 3z m417 -1096 c16 -22 22 -43 20
-73 -4 -78 38 -191 109 -295 10 -14 20 -43 22 -65 3 -22 3 -32 1 -22 -2 9 -9
17 -14 17 -5 0 -9 6 -9 13 0 7 -21 46 -47 87 -57 92 -93 179 -93 224 0 24 -7
39 -20 49 -16 11 -19 21 -14 46 5 23 3 36 -7 42 -11 7 -9 9 8 9 13 0 31 -12
44 -32z"/>
<path d="M3711 9002 c-35 -36 -51 -63 -65 -112 -48 -166 -44 -372 12 -590 12
-44 132 -408 145 -437 5 -12 6 -30 2 -40 -6 -15 -8 -15 -12 -3 -3 8 -13 33
-23 55 -9 22 -23 58 -31 80 -7 22 -17 44 -21 50 -4 5 -8 15 -8 22 0 7 -9 32
-19 56 -11 23 -47 112 -81 197 -107 270 -187 415 -269 488 -37 32 -106 62
-141 62 -99 0 -205 -129 -227 -277 -11 -68 1 -171 36 -330 24 -104 108 -366
151 -468 30 -70 114 -346 124 -407 7 -41 2 -45 -38 -27 -27 13 -26 10 -86 194
-98 303 -191 516 -294 675 -104 162 -174 201 -265 149 -94 -52 -144 -232 -122
-433 19 -169 79 -415 131 -541 5 -11 19 -49 31 -85 12 -36 37 -105 56 -155 19
-49 44 -115 55 -145 11 -30 25 -66 30 -80 16 -38 22 -52 88 -225 34 -88 68
-176 77 -195 8 -19 19 -44 23 -55 4 -11 20 -46 34 -78 14 -32 26 -60 26 -63 0
-3 37 -79 81 -169 90 -182 124 -221 235 -272 89 -41 172 -45 354 -18 l46 7 13
-53 c15 -61 87 -284 101 -314 5 -11 23 -56 41 -100 32 -85 35 -91 98 -228 23
-49 41 -90 41 -92 0 -2 47 -100 105 -219 58 -119 105 -219 105 -222 0 -3 9
-26 21 -52 12 -26 28 -63 36 -82 9 -19 28 -62 43 -95 15 -33 48 -116 74 -185
27 -69 51 -134 56 -145 61 -152 247 -711 316 -955 9 -30 20 -66 24 -80 8 -27
44 -149 62 -215 6 -22 15 -53 19 -70 21 -72 71 -252 90 -320 64 -229 194 -637
229 -720 5 -11 27 -69 50 -129 84 -223 201 -435 322 -583 73 -90 101 -117 183
-180 124 -94 223 -128 365 -127 269 2 432 142 489 422 17 80 14 337 -5 444
-29 171 -89 379 -164 573 -41 108 -134 326 -199 470 -15 33 -43 94 -62 135
-65 144 -327 651 -359 695 -4 6 -21 35 -37 65 -17 30 -39 71 -50 90 -11 19
-53 94 -93 165 -40 72 -87 153 -105 180 -18 28 -49 79 -70 115 -21 36 -46 79
-55 95 -157 270 -340 587 -340 589 0 2 -30 56 -66 122 -63 113 -314 615 -314
627 0 4 -20 48 -43 99 -24 51 -50 111 -57 133 -7 22 -16 45 -20 50 -4 6 -13
28 -20 50 -7 22 -21 58 -32 81 -10 22 -39 99 -63 170 l-45 129 54 48 c144 126
205 312 192 577 -15 292 -88 551 -331 1180 -36 91 -92 251 -126 355 -95 298
-138 413 -189 511 -83 161 -139 214 -226 214 -44 0 -51 -4 -93 -48z m55 -316
c8 -8 14 -17 14 -21 0 -4 19 -39 43 -78 23 -40 47 -83 53 -97 17 -39 48 -144
68 -230 5 -19 11 -39 14 -45 4 -5 7 -23 9 -40 2 -33 17 -122 33 -200 6 -27 13
-63 16 -80 20 -115 55 -231 84 -275 9 -14 31 -55 49 -93 18 -37 37 -69 41 -72
16 -10 49 -142 55 -225 4 -47 10 -89 13 -95 4 -5 7 -17 7 -25 1 -17 52 -183
68 -217 16 -35 3 -219 -16 -241 -10 -10 -17 -30 -17 -44 0 -14 -8 -36 -19 -49
-10 -13 -26 -49 -35 -79 -10 -30 -24 -68 -32 -85 -17 -37 -44 -167 -44 -216 0
-36 43 -328 59 -404 19 -86 63 -251 71 -260 4 -5 11 -26 15 -45 4 -19 11 -41
16 -50 4 -8 16 -35 26 -59 35 -86 139 -287 176 -341 21 -30 62 -89 92 -130
187 -258 204 -288 280 -515 26 -77 51 -149 55 -160 4 -11 23 -62 40 -113 24
-68 42 -102 67 -125 29 -28 33 -36 28 -67 -5 -28 4 -59 40 -145 26 -60 49
-119 52 -130 3 -11 9 -24 13 -30 18 -23 50 -87 50 -98 1 -17 31 -52 53 -60 20
-7 40 -54 33 -74 -8 -20 44 -129 87 -186 29 -37 37 -56 37 -88 0 -37 6 -47 66
-107 55 -56 64 -70 55 -84 -18 -28 -13 -51 20 -104 37 -58 130 -176 173 -220
17 -17 52 -56 77 -85 26 -30 72 -80 103 -113 31 -32 56 -64 56 -71 0 -7 6 -18
14 -24 21 -17 65 -111 86 -183 10 -35 21 -71 25 -80 10 -26 1 -23 -68 19 -51
32 -68 38 -116 37 -152 -2 -209 -152 -166 -439 16 -104 26 -152 45 -220 20
-70 22 -92 10 -115 -9 -17 -9 -29 0 -53 34 -90 74 -161 117 -210 26 -30 63
-73 81 -96 77 -95 136 -86 254 38 40 43 99 105 130 139 31 33 59 58 62 54 24
-24 -16 -178 -66 -250 -33 -48 -98 -99 -137 -109 -14 -3 -32 -10 -38 -15 -7
-6 -50 -10 -95 -10 -199 -1 -349 100 -510 344 -59 89 -188 332 -188 353 0 3
-11 28 -24 57 -22 48 -43 103 -108 278 -11 30 -24 64 -28 75 -22 57 -123 385
-161 523 -5 17 -13 47 -18 65 -37 131 -98 352 -137 497 -8 30 -24 87 -35 125
-12 39 -30 102 -42 140 -34 120 -87 283 -144 450 -30 88 -60 180 -68 205 -15
50 -80 233 -94 265 -5 11 -24 58 -42 105 -17 47 -43 109 -56 138 -12 29 -23
55 -23 57 0 4 -16 40 -89 198 -16 34 -66 139 -111 232 -45 94 -90 188 -100
210 -10 22 -29 66 -44 98 -14 31 -37 81 -50 110 -28 62 -127 331 -149 402 -8
28 -12 65 -9 83 2 19 -1 44 -8 57 -11 20 -10 28 9 53 25 36 28 103 5 123 -13
10 -21 10 -47 0 -18 -7 -50 -16 -73 -20 -22 -4 -54 -17 -70 -28 -54 -38 -179
-54 -259 -32 -126 33 -170 77 -255 254 -37 77 -80 169 -95 205 -15 36 -34 81
-42 100 -8 19 -19 44 -23 55 -4 11 -17 40 -27 65 -11 25 -41 101 -67 170 -26
69 -52 135 -57 148 -5 12 -13 32 -18 45 -40 98 -163 455 -182 525 -5 17 -14
49 -20 70 -79 277 -107 499 -75 577 21 49 44 45 91 -17 140 -186 270 -488 406
-941 27 -92 43 -106 94 -81 29 14 40 14 65 4 54 -22 118 12 146 78 13 31 13
47 4 97 -21 113 -84 311 -180 570 -16 42 -54 163 -126 400 -19 61 -29 148 -20
171 6 16 8 16 26 -1 11 -10 20 -27 20 -38 0 -11 16 -36 36 -55 19 -19 40 -44
45 -56 5 -11 13 -28 18 -36 5 -8 19 -37 32 -65 43 -99 71 -160 80 -177 5 -10
9 -23 9 -30 0 -7 14 -40 30 -73 17 -33 30 -64 30 -70 0 -5 12 -32 25 -60 14
-27 25 -57 25 -65 0 -9 4 -20 9 -25 4 -6 26 -44 47 -85 90 -175 179 -266 269
-276 38 -5 50 -2 70 18 14 13 25 31 25 41 0 9 4 17 10 17 38 0 68 218 48 345
-19 115 -71 321 -90 359 -23 44 -86 262 -114 396 -15 69 -18 138 -8 164 8 20
12 20 30 2z m-363 -273 c13 -27 41 -91 62 -143 54 -137 56 -143 66 -162 5 -10
9 -22 9 -28 0 -5 11 -33 24 -62 32 -71 106 -260 106 -273 0 -6 13 -37 30 -70
31 -63 35 -75 22 -75 -4 0 -13 15 -20 33 -7 17 -18 39 -23 47 -5 8 -14 26 -20
40 -52 117 -126 251 -150 272 -10 9 -19 20 -19 25 0 4 -13 17 -29 27 -28 19
-28 20 -26 110 3 96 -3 112 -42 127 -21 8 -23 14 -23 94 0 47 2 85 5 85 2 0
15 -21 28 -47z m806 -490 c13 -40 21 -62 39 -103 29 -68 102 -271 102 -285 0
-25 -17 -17 -24 11 -4 14 -17 36 -30 49 -17 17 -26 41 -31 82 -8 69 -15 83
-66 145 -39 47 -39 47 -27 92 7 25 15 46 18 46 3 0 12 -17 19 -37z m340 -1182
c0 -49 -15 -166 -28 -224 -15 -68 -102 -197 -133 -197 -4 0 -5 15 -2 33 5 31
9 43 32 97 5 14 15 41 22 60 7 19 19 50 27 68 32 74 53 148 53 191 1 43 2 45
15 27 8 -11 15 -36 14 -55z m790 -2778 c25 -43 68 -114 96 -158 28 -44 54 -87
58 -95 4 -8 20 -37 37 -65 16 -27 57 -102 91 -165 34 -63 67 -122 74 -130 7
-8 44 -73 82 -145 39 -71 80 -148 93 -170 49 -85 148 -284 184 -370 21 -49 42
-98 48 -108 16 -31 1 -31 -26 -2 -15 16 -26 36 -26 46 0 35 -56 119 -142 213
-16 17 -41 49 -56 71 -15 22 -32 45 -38 50 -10 10 -41 56 -115 175 -44 70
-139 255 -173 340 -26 61 -67 154 -87 192 -5 10 -9 23 -9 29 0 6 -13 30 -30
54 -16 24 -30 54 -30 67 0 13 -4 28 -8 33 -4 6 -14 28 -21 50 -12 36 -66 158
-92 210 -26 51 51 -52 90 -122z m797 -2177 c176 -198 206 -501 63 -631 -62
-56 -81 -48 -127 48 -59 127 -126 351 -152 512 -13 83 -13 208 2 223 16 16
145 -75 214 -152z"/>
</g>
</svg>
